<?xml version="1.0" encoding="UTF-8"?>
<!DOCTYPE svg PUBLIC "-//W3C//DTD SVG 1.1//EN" "http://www.w3.org/Graphics/SVG/1.1/DTD/svg11.dtd">
<svg xmlns="http://www.w3.org/2000/svg" version="1.1" width="159px" height="121px" style="shape-rendering:geometricPrecision; text-rendering:geometricPrecision; image-rendering:optimizeQuality; fill-rule:evenodd; clip-rule:evenodd" xmlns:xlink="http://www.w3.org/1999/xlink">
<g><path style="opacity:0.95" fill="#fe9500" d="M 142.5,73.5 C 131.473,68.2639 120.14,63.5973 108.5,59.5C 102.505,57.168 96.5049,54.8347 90.5,52.5C 88.8984,50.9261 86.8984,50.2594 84.5,50.5C 84.5,49.8333 84.1667,49.5 83.5,49.5C 70.6291,43.2052 57.2957,37.8719 43.5,33.5C 39.126,31.4224 34.626,29.4224 30,27.5C 29.168,18.4815 29.3347,9.48154 30.5,0.5C 67.9139,15.638 105.247,30.9713 142.5,46.5C 143.822,55.6582 143.822,64.6582 142.5,73.5 Z"/></g>
<g><path style="opacity:0.927" fill="#7634a7" d="M 43.5,33.5 C 57.2957,37.8719 70.6291,43.2052 83.5,49.5C 74.8176,55.0913 65.651,59.7579 56,63.5C 53.1054,62.5912 50.2721,61.5912 47.5,60.5C 47.1583,59.6618 46.4916,59.3284 45.5,59.5C 45.1583,58.6618 44.4916,58.3284 43.5,58.5C 43.5,57.8333 43.1667,57.5 42.5,57.5C 42.1667,57.5 41.8333,57.5 41.5,57.5C 41.5,56.8333 41.1667,56.5 40.5,56.5C 40.1583,55.6618 39.4916,55.3284 38.5,55.5C 38.1583,54.6618 37.4916,54.3284 36.5,54.5C 36.5,53.8333 36.1667,53.5 35.5,53.5C 35.1667,53.5 34.8333,53.5 34.5,53.5C 34.5,52.8333 34.1667,52.5 33.5,52.5C 33.1583,51.6618 32.4916,51.3284 31.5,51.5C 31.1583,50.6618 30.4916,50.3284 29.5,50.5C 29.5,49.8333 29.1667,49.5 28.5,49.5C 26.7516,47.8401 26.2516,45.8401 27,43.5C 32.3858,39.941 37.8858,36.6076 43.5,33.5 Z"/></g>
<g><path style="opacity:0.922" fill="#0774c6" d="M 28.5,49.5 C 29.1667,49.5 29.5,49.8333 29.5,50.5C 29.8417,51.3382 30.5084,51.6716 31.5,51.5C 31.8417,52.3382 32.5084,52.6716 33.5,52.5C 34.1667,52.5 34.5,52.8333 34.5,53.5C 34.8333,53.5 35.1667,53.5 35.5,53.5C 36.1667,53.5 36.5,53.8333 36.5,54.5C 36.8417,55.3382 37.5084,55.6716 38.5,55.5C 38.8417,56.3382 39.5084,56.6716 40.5,56.5C 41.1667,56.5 41.5,56.8333 41.5,57.5C 41.8333,57.5 42.1667,57.5 42.5,57.5C 43.1667,57.5 43.5,57.8333 43.5,58.5C 43.8417,59.3382 44.5084,59.6716 45.5,59.5C 45.8417,60.3382 46.5084,60.6716 47.5,60.5C 50.5287,62.372 52.6954,65.0386 54,68.5C 54.499,72.8206 54.6657,77.1539 54.5,81.5C 53.712,87.0855 53.212,92.7521 53,98.5C 50.8368,99.768 48.6702,99.768 46.5,98.5C 42.3019,95.3196 37.6352,92.9863 32.5,91.5C 21.7474,86.5056 17.7474,78.0056 20.5,66C 20.5749,60.4658 20.9082,54.9658 21.5,49.5C 23.8333,49.5 26.1667,49.5 28.5,49.5 Z"/></g>
<g><path style="opacity:0.957" fill="#0a9e00" d="M 84.5,50.5 C 86.8984,50.2594 88.8984,50.9261 90.5,52.5C 90.5,57.5 90.5,62.5 90.5,67.5C 89.9132,73.427 89.0799,79.427 88,85.5C 82.9308,89.4182 77.7641,93.0849 72.5,96.5C 69.4111,97.7389 66.4111,99.2389 63.5,101C 61.8333,101.667 60.1667,101.667 58.5,101C 57.8505,94.4009 57.1838,87.9009 56.5,81.5C 56.0227,76.258 56.8561,71.258 59,66.5C 67.1433,60.5164 75.6433,55.183 84.5,50.5 Z"/></g>
<g><path style="opacity:0.949" fill="#ff3900" d="M 105.5,61.5 C 108.695,69.0828 111.695,76.7495 114.5,84.5C 108.406,87.5375 102.073,90.2042 95.5,92.5C 94.1052,88.4849 92.6052,84.4849 91,80.5C 90.501,76.1794 90.3343,71.8461 90.5,67.5C 95.4951,65.5013 100.495,63.5013 105.5,61.5 Z"/></g>
<g><path style="opacity:0.949" fill="#ff1f00" d="M 108.5,59.5 C 120.14,63.5973 131.473,68.2639 142.5,73.5C 133.156,77.1732 123.823,80.8399 114.5,84.5C 111.695,76.7495 108.695,69.0828 105.5,61.5C 106.71,61.0679 107.71,60.4013 108.5,59.5 Z"/></g>
<g><path style="opacity:0.873" fill="#f85400" d="M 90.5,67.5 C 90.3343,71.8461 90.501,76.1794 91,80.5C 92.6052,84.4849 94.1052,88.4849 95.5,92.5C 88.1339,96.0704 80.4673,99.0704 72.5,101.5C 71.1667,99.8333 71.1667,98.1667 72.5,96.5C 77.7641,93.0849 82.9308,89.4182 88,85.5C 89.0799,79.427 89.9132,73.427 90.5,67.5 Z"/></g>
<g><path style="opacity:0.958" fill="#fd8d02" d="M 32.5,91.5 C 37.6352,92.9863 42.3019,95.3196 46.5,98.5C 45.5028,98.4701 44.8361,98.9701 44.5,100C 45.9004,104.064 47.5671,107.897 49.5,111.5C 43.0247,114.405 36.3581,116.739 29.5,118.5C 29.5,109.5 29.5,100.5 29.5,91.5C 30.5,91.5 31.5,91.5 32.5,91.5 Z"/></g>
<g><path style="opacity:0.929" fill="#f67709" d="M 54.5,81.5 C 55.1667,81.5 55.8333,81.5 56.5,81.5C 57.1838,87.9009 57.8505,94.4009 58.5,101C 60.1667,101.667 61.8333,101.667 63.5,101C 66.4111,99.2389 69.4111,97.7389 72.5,96.5C 71.1667,98.1667 71.1667,99.8333 72.5,101.5C 65.0704,105.205 57.4037,108.539 49.5,111.5C 47.5671,107.897 45.9004,104.064 44.5,100C 44.8361,98.9701 45.5028,98.4701 46.5,98.5C 48.6702,99.768 50.8368,99.768 53,98.5C 53.212,92.7521 53.712,87.0855 54.5,81.5 Z"/></g>
</svg>
